{
  "accessors": [
    {
      "bufferView": 2,
      "componentType": 5126,
      "count": 50479,
      "max": [
        95.89569091796875,
        577.010498046875,
        396.4229431152344
      ],
      "min": [
        -95.89569091796875,
        -476.9000549316406,
        0.9133129715919495
      ],
      "type": "VEC3"
    },
    {
      "bufferView": 2,
      "byteOffset": 605748,
      "componentType": 5126,
      "count": 50479,
      "max": [
        0.9999995827674866,
        1.0,
        0.99995356798172
      ],
      "min": [
        -0.9999997615814209,
        -0.9999998807907104,
        -0.9999892711639404
      ],
      "type": "VEC3"
    },
    {
      "bufferView": 1,
      "componentType": 5126,
      "count": 50479,
      "max": [
        0.9614679217338562,
        0.9832900166511536
      ],
      "min": [
        0.020891999825835228,
        0.023774027824401855
      ],
      "type": "VEC2"
    },
    {
      "bufferView": 0,
      "componentType": 5125,
      "count": 251964,
      "type": "SCALAR"
    }
  ],
  "asset": {
    "extras": {
      "author": "Indominus Rex (https://sketchfab.com/lentoneulb)",
      "license": "CC-BY-4.0 (http://creativecommons.org/licenses/by/4.0/)",
      "source": "https://sketchfab.com/3d-models/dinoraul-t-rex-but-it-is-a-bit-more-accurate-4e3c540225d646c49f52ac75cb697e05",
      "title": "Dinoraul T Rex but it is a bit more accurate"
    },
    "generator": "Sketchfab-14.70.0",
    "version": "2.0"
  },
  "bufferViews": [
    {
      "buffer": 0,
      "byteLength": 1007856,
      "name": "floatBufferViews",
      "target": 34963
    },
    {
      "buffer": 0,
      "byteLength": 403832,
      "byteOffset": 1007856,
      "byteStride": 8,
      "name": "floatBufferViews",
      "target": 34962
    },
    {
      "buffer": 0,
      "byteLength": 1211496,
      "byteOffset": 1411688,
      "byteStride": 12,
      "name": "floatBufferViews",
      "target": 34962
    }
  ],
  "buffers": [
    {
      "byteLength": 2623184,
      "uri": "scene.bin"
    }
  ],
  "images": [
    {
      "uri": "textures/material_0_baseColor.jpeg"
    }
  ],
  "materials": [
    {
      "doubleSided": true,
      "name": "material_0",
      "pbrMetallicRoughness": {
        "baseColorTexture": {
          "index": 0
        },
        "metallicFactor": 0.0,
        "roughnessFactor": 0.6
      }
    }
  ],
  "meshes": [
    {
      "name": "Object_0",
      "primitives": [
        {
          "attributes": {
            "NORMAL": 1,
            "POSITION": 0,
            "TEXCOORD_0": 2
          },
          "indices": 3,
          "material": 0,
          "mode": 4
        }
      ]
    }
  ],
  "nodes": [
    {
      "children": [
        1
      ],
      "matrix": [
        1.0,
        0.0,
        0.0,
        0.0,
        0.0,
        2.220446049250313e-16,
        -1.0,
        0.0,
        0.0,
        1.0,
        2.220446049250313e-16,
        0.0,
        0.0,
        0.0,
        0.0,
        1.0
      ],
      "name": "Sketchfab_model"
    },
    {
      "children": [
        2
      ],
      "name": "yourMesh (16).obj.cleaner.materialmerger.gles"
    },
    {
      "mesh": 0,
      "name": "Object_2"
    }
  ],
  "samplers": [
    {
      "magFilter": 9729,
      "minFilter": 9987,
      "wrapS": 10497,
      "wrapT": 10497
    }
  ],
  "scene": 0,
  "scenes": [
    {
      "name": "Sketchfab_Scene",
      "nodes": [
        0
      ]
    }
  ],
  "textures": [
    {
      "sampler": 0,
      "source": 0
    }
  ]
}
