{
  "accessors": [
    {
      "bufferView": 2,
      "componentType": 5126,
      "count": 14064,
      "max": [
        0.9350590109825134,
        0.9337559938430786,
        1.9780659675598145
      ],
      "min": [
        -0.9355480074882507,
        -0.9510110020637512,
        0.045935001224279404
      ],
      "type": "VEC3"
    },
    {
      "bufferView": 2,
      "byteOffset": 168768,
      "componentType": 5126,
      "count": 14064,
      "max": [
        1.0,
        0.9999960660934448,
        1.0
      ],
      "min": [
        -1.0,
        -0.9999903440475464,
        -1.0
      ],
      "type": "VEC3"
    },
    {
      "bufferView": 3,
      "componentType": 5126,
      "count": 14064,
      "max": [
        1.0,
        1.0,
        1.0,
        1.0
      ],
      "min": [
        -1.0,
        -1.0,
        -1.0,
        -1.0
      ],
      "type": "VEC4"
    },
    {
      "bufferView": 1,
      "componentType": 5126,
      "count": 14064,
      "max": [
        1.997802972793579,
        1.9973139762878418
      ],
      "min": [
        0.002196999965235591,
        1.001220941543579
      ],
      "type": "VEC2"
    },
    {
      "bufferView": 0,
      "componentType": 5125,
      "count": 51393,
      "type": "SCALAR"
    },
    {
      "bufferView": 2,
      "byteOffset": 337536,
      "componentType": 5126,
      "count": 1817,
      "max": [
        0.547851026058197,
        0.5323879718780518,
        1.403359055519104
      ],
      "min": [
        -0.5483409762382507,
        -0.058921001851558685,
        0.6636120080947876
      ],
      "type": "VEC3"
    },
    {
      "bufferView": 2,
      "byteOffset": 359340,
      "componentType": 5126,
      "count": 1817,
      "max": [
        0.9999979734420776,
        0.9905595779418945,
        0.9999889135360718
      ],
      "min": [
        -0.9999979734420776,
        -0.9996849894523621,
        -0.999850332736969
      ],
      "type": "VEC3"
    },
    {
      "bufferView": 3,
      "byteOffset": 225024,
      "componentType": 5126,
      "count": 1817,
      "max": [
        1.0,
        0.9998496770858765,
        0.9895291924476624,
        1.0
      ],
      "min": [
        -1.0,
        -0.9995644092559814,
        -0.9996702075004578,
        -1.0
      ],
      "type": "VEC4"
    },
    {
      "bufferView": 1,
      "byteOffset": 112512,
      "componentType": 5126,
      "count": 1817,
      "max": [
        1.9929200410842896,
        1.975342035293579
      ],
      "min": [
        0.32397499680519104,
        1.002197027206421
      ],
      "type": "VEC2"
    },
    {
      "bufferView": 0,
      "byteOffset": 205572,
      "componentType": 5125,
      "count": 6828,
      "type": "SCALAR"
    },
    {
      "bufferView": 2,
      "byteOffset": 381144,
      "componentType": 5126,
      "count": 439,
      "max": [
        1.1494150161743164,
        1.1490880250930786,
        2.2983789443969727
      ],
      "min": [
        -1.1499030590057373,
        -1.1497420072555542,
        -0.0009399999980814755
      ],
      "type": "VEC3"
    },
    {
      "bufferView": 2,
      "byteOffset": 386412,
      "componentType": 5126,
      "count": 439,
      "max": [
        1.0,
        1.0,
        1.0
      ],
      "min": [
        -1.0,
        -1.0,
        -1.0
      ],
      "type": "VEC3"
    },
    {
      "bufferView": 3,
      "byteOffset": 254096,
      "componentType": 5126,
      "count": 439,
      "max": [
        1.0,
        1.0,
        0.07910199463367462,
        1.0
      ],
      "min": [
        -1.0,
        -1.0,
        -0.07910200208425522,
        1.0
      ],
      "type": "VEC4"
    },
    {
      "bufferView": 1,
      "byteOffset": 127048,
      "componentType": 5126,
      "count": 439,
      "max": [
        0.9997559785842896,
        1.9997559785842896
      ],
      "min": [
        0.00024399999529123306,
        1.0002440214157104
      ],
      "type": "VEC2"
    },
    {
      "bufferView": 0,
      "byteOffset": 232884,
      "componentType": 5125,
      "count": 2280,
      "type": "SCALAR"
    }
  ],
  "asset": {
    "extras": {
      "author": "AllThingsSaurus (https://sketchfab.com/AllThingsSaurus)",
      "license": "CC-BY-4.0 (http://creativecommons.org/licenses/by/4.0/)",
      "source": "https://sketchfab.com/3d-models/jurassic-world-gyrosphere-0d8922f90a664853b9891e088868d7f7",
      "title": "Jurassic World Gyrosphere"
    },
    "generator": "Sketchfab-16.75.0",
    "version": "2.0"
  },
  "bufferViews": [
    {
      "buffer": 0,
      "byteLength": 242004,
      "name": "floatBufferViews",
      "target": 34963
    },
    {
      "buffer": 0,
      "byteLength": 130560,
      "byteOffset": 242004,
      "byteStride": 8,
      "name": "floatBufferViews",
      "target": 34962
    },
    {
      "buffer": 0,
      "byteLength": 391680,
      "byteOffset": 372564,
      "byteStride": 12,
      "name": "floatBufferViews",
      "target": 34962
    },
    {
      "buffer": 0,
      "byteLength": 261120,
      "byteOffset": 764244,
      "byteStride": 16,
      "name": "floatBufferViews",
      "target": 34962
    }
  ],
  "buffers": [
    {
      "byteLength": 1025364,
      "uri": "scene.bin"
    }
  ],
  "extensionsUsed": [
    "KHR_materials_specular",
    "KHR_materials_transmission"
  ],
  "images": [
    {
      "uri": "textures/24_Gyrosphere_Interior_0.1_0_0.001_baseColor.png"
    },
    {
      "uri": "textures/24_Gyrosphere_Interior_0.1_0_0.001_normal.png"
    },
    {
      "uri": "textures/25_Glass_1.5_0_0.001_baseColor.png"
    },
    {
      "uri": "textures/25_Glass_1.5_0_0.001_normal.png"
    }
  ],
  "materials": [
    {
      "doubleSided": true,
      "extensions": {
        "KHR_materials_specular": {
          "specularColorFactor": [
            1.0,
            1.0,
            1.0
          ],
          "specularFactor": 0.0
        }
      },
      "name": "24_Gyrosphere_Interior_0.1_0_0.001",
      "normalTexture": {
        "index": 1
      },
      "pbrMetallicRoughness": {
        "baseColorTexture": {
          "index": 0
        },
        "metallicFactor": 0.0,
        "roughnessFactor": 0.6
      }
    },
    {
      "doubleSided": true,
      "extensions": {
        "KHR_materials_specular": {
          "specularColorFactor": [
            1.0,
            1.0,
            1.0
          ],
          "specularFactor": 0.0
        }
      },
      "name": "24_Seatbelts_0.1_0_0.002",
      "normalTexture": {
        "index": 1
      },
      "pbrMetallicRoughness": {
        "baseColorTexture": {
          "index": 0
        },
        "metallicFactor": 0.0,
        "roughnessFactor": 0.6
      }
    },
    {
      "alphaMode": "BLEND",
      "doubleSided": true,
      "extensions": {
        "KHR_materials_specular": {
          "specularColorFactor": [
            1.0,
            1.0,
            1.0
          ],
          "specularFactor": 0.0
        },
        "KHR_materials_transmission": {
          "transmissionFactor": 1.0
        }
      },
      "name": "25_Glass_1.5_0_0.001",
      "normalTexture": {
        "index": 3
      },
      "pbrMetallicRoughness": {
        "baseColorFactor": [
          1.0,
          1.0,
          1.0,
          0.25
        ],
        "baseColorTexture": {
          "index": 2
        },
        "metallicFactor": 0.0,
        "roughnessFactor": 0.6
      }
    }
  ],
  "meshes": [
    {
      "name": "Object_0",
      "primitives": [
        {
          "attributes": {
            "NORMAL": 1,
            "POSITION": 0,
            "TANGENT": 2,
            "TEXCOORD_0": 3
          },
          "indices": 4,
          "material": 0,
          "mode": 4
        }
      ]
    },
    {
      "name": "Object_1",
      "primitives": [
        {
          "attributes": {
            "NORMAL": 6,
            "POSITION": 5,
            "TANGENT": 7,
            "TEXCOORD_0": 8
          },
          "indices": 9,
          "material": 1,
          "mode": 4
        }
      ]
    },
    {
      "name": "Object_2",
      "primitives": [
        {
          "attributes": {
            "NORMAL": 11,
            "POSITION": 10,
            "TANGENT": 12,
            "TEXCOORD_0": 13
          },
          "indices": 14,
          "material": 2,
          "mode": 4
        }
      ]
    }
  ],
  "nodes": [
    {
      "children": [
        1
      ],
      "matrix": [
        1.0,
        0.0,
        0.0,
        0.0,
        0.0,
        2.220446049250313e-16,
        -1.0,
        0.0,
        0.0,
        1.0,
        2.220446049250313e-16,
        0.0,
        0.0,
        0.0,
        0.0,
        1.0
      ],
      "name": "Sketchfab_model"
    },
    {
      "children": [
        2,
        3,
        4
      ],
      "name": "untitled.obj.cleaner.materialmerger.gles"
    },
    {
      "mesh": 0,
      "name": "Object_2"
    },
    {
      "mesh": 1,
      "name": "Object_3"
    },
    {
      "mesh": 2,
      "name": "Object_4"
    }
  ],
  "samplers": [
    {
      "magFilter": 9729,
      "minFilter": 9987,
      "wrapS": 10497,
      "wrapT": 10497
    }
  ],
  "scene": 0,
  "scenes": [
    {
      "name": "Sketchfab_Scene",
      "nodes": [
        0
      ]
    }
  ],
  "textures": [
    {
      "sampler": 0,
      "source": 0
    },
    {
      "sampler": 0,
      "source": 1
    },
    {
      "sampler": 0,
      "source": 2
    },
    {
      "sampler": 0,
      "source": 3
    }
  ]
}
