{
  "accessors": [
    {
      "bufferView": 2,
      "componentType": 5126,
      "count": 9255,
      "max": [
        11.260844230651855,
        84.2212142944336,
        52.36416244506836
      ],
      "min": [
        -11.265795707702637,
        -59.5117073059082,
        -0.3662869930267334
      ],
      "type": "VEC3"
    },
    {
      "bufferView": 2,
      "byteOffset": 111060,
      "componentType": 5126,
      "count": 9255,
      "max": [
        0.9998736381530762,
        0.9994282722473145,
        0.9999687671661377
      ],
      "min": [
        -0.9998704195022583,
        -0.9994282722473145,
        -0.9999687671661377
      ],
      "type": "VEC3"
    },
    {
      "bufferView": 3,
      "componentType": 5126,
      "count": 9255,
      "max": [
        1.0,
        0.9999897480010986,
        0.9999986290931702,
        1.0
      ],
      "min": [
        -1.0,
        -0.9998763203620911,
        -0.9999987483024597,
        -1.0
      ],
      "type": "VEC4"
    },
    {
      "bufferView": 1,
      "componentType": 5126,
      "count": 9255,
      "max": [
        0.9924319982528687,
        0.9968259930610657
      ],
      "min": [
        0.0095210000872612,
        0.01049800030887127
      ],
      "type": "VEC2"
    },
    {
      "bufferView": 0,
      "componentType": 5125,
      "count": 47226,
      "type": "SCALAR"
    }
  ],
  "asset": {
    "extras": {
      "author": "AllThingsSaurus (https://sketchfab.com/AllThingsSaurus)",
      "license": "CC-BY-4.0 (http://creativecommons.org/licenses/by/4.0/)",
      "source": "https://sketchfab.com/3d-models/jpog-carcharodontosaurus-39fc74a88ecf44edafe29f1568479ff2",
      "title": "JP:OG Carcharodontosaurus"
    },
    "generator": "Sketchfab-16.85.0",
    "version": "2.0"
  },
  "bufferViews": [
    {
      "buffer": 0,
      "byteLength": 188904,
      "name": "floatBufferViews",
      "target": 34963
    },
    {
      "buffer": 0,
      "byteLength": 74040,
      "byteOffset": 188904,
      "byteStride": 8,
      "name": "floatBufferViews",
      "target": 34962
    },
    {
      "buffer": 0,
      "byteLength": 222120,
      "byteOffset": 262944,
      "byteStride": 12,
      "name": "floatBufferViews",
      "target": 34962
    },
    {
      "buffer": 0,
      "byteLength": 148080,
      "byteOffset": 485064,
      "byteStride": 16,
      "name": "floatBufferViews",
      "target": 34962
    }
  ],
  "buffers": [
    {
      "byteLength": 633144,
      "uri": "scene.bin"
    }
  ],
  "extensionsUsed": [
    "KHR_materials_specular"
  ],
  "images": [
    {
      "uri": "textures/carcharodontosaur03_baseColor.png"
    },
    {
      "uri": "textures/carcharodontosaur03_normal.png"
    }
  ],
  "materials": [
    {
      "doubleSided": true,
      "extensions": {
        "KHR_materials_specular": {
          "specularColorFactor": [
            1.0,
            1.0,
            1.0
          ],
          "specularFactor": 0.0
        }
      },
      "name": "carcharodontosaur03",
      "normalTexture": {
        "index": 1
      },
      "pbrMetallicRoughness": {
        "baseColorTexture": {
          "index": 0
        },
        "metallicFactor": 0.0,
        "roughnessFactor": 0.6
      }
    }
  ],
  "meshes": [
    {
      "name": "Object_0",
      "primitives": [
        {
          "attributes": {
            "NORMAL": 1,
            "POSITION": 0,
            "TANGENT": 2,
            "TEXCOORD_0": 3
          },
          "indices": 4,
          "material": 0,
          "mode": 4
        }
      ]
    }
  ],
  "nodes": [
    {
      "children": [
        1
      ],
      "matrix": [
        1.0,
        0.0,
        0.0,
        0.0,
        0.0,
        2.220446049250313e-16,
        -1.0,
        0.0,
        0.0,
        1.0,
        2.220446049250313e-16,
        0.0,
        0.0,
        0.0,
        0.0,
        1.0
      ],
      "name": "Sketchfab_model"
    },
    {
      "children": [
        2
      ],
      "name": "untitled.obj.cleaner.materialmerger.gles"
    },
    {
      "mesh": 0,
      "name": "Object_2"
    }
  ],
  "samplers": [
    {
      "magFilter": 9729,
      "minFilter": 9987,
      "wrapS": 10497,
      "wrapT": 10497
    }
  ],
  "scene": 0,
  "scenes": [
    {
      "name": "Sketchfab_Scene",
      "nodes": [
        0
      ]
    }
  ],
  "textures": [
    {
      "sampler": 0,
      "source": 0
    },
    {
      "sampler": 0,
      "source": 1
    }
  ]
}
