{
  "accessors": [
    {
      "bufferView": 2,
      "componentType": 5126,
      "count": 2506,
      "max": [
        874.5570678710938,
        7244.7529296875,
        1795.9964599609375
      ],
      "min": [
        -2373.07275390625,
        -7248.5478515625,
        1082.1595458984375
      ],
      "type": "VEC3"
    },
    {
      "bufferView": 2,
      "byteOffset": 30072,
      "componentType": 5126,
      "count": 2506,
      "max": [
        0.9995264410972595,
        0.9995781183242798,
        0.9999943971633911
      ],
      "min": [
        -0.9985547065734863,
        -0.9998359680175781,
        -0.9999951720237732
      ],
      "type": "VEC3"
    },
    {
      "bufferView": 1,
      "componentType": 5126,
      "count": 2506,
      "max": [
        0.9995005130767822,
        0.9995003938674927
      ],
      "min": [
        0.0004995167255401611,
        0.0004995465278625488
      ],
      "type": "VEC2"
    },
    {
      "bufferView": 0,
      "componentType": 5125,
      "count": 14919,
      "type": "SCALAR"
    },
    {
      "bufferView": 2,
      "byteOffset": 60144,
      "componentType": 5126,
      "count": 65,
      "max": [
        1287.6722412109375,
        130.1688232421875,
        1755.9400634765625
      ],
      "min": [
        1209.7266845703125,
        109.23400115966797,
        1677.9945068359375
      ],
      "type": "VEC3"
    },
    {
      "bufferView": 2,
      "byteOffset": 60924,
      "componentType": 5126,
      "count": 65,
      "max": [
        0.933786153793335,
        -0.3457830548286438,
        0.9377695918083191
      ],
      "min": [
        -0.9377695918083191,
        -0.9954838752746582,
        -0.9377694725990295
      ],
      "type": "VEC3"
    },
    {
      "bufferView": 1,
      "byteOffset": 20048,
      "componentType": 5126,
      "count": 65,
      "max": [
        0.9999999403953552,
        1.0000001192092896
      ],
      "min": [
        -3.5762786865234375e-07,
        -2.384185791015625e-07
      ],
      "type": "VEC2"
    },
    {
      "bufferView": 0,
      "byteOffset": 59676,
      "componentType": 5125,
      "count": 336,
      "type": "SCALAR"
    },
    {
      "bufferView": 2,
      "byteOffset": 61704,
      "componentType": 5126,
      "count": 65,
      "max": [
        1287.6722412109375,
        -109.76824951171875,
        1755.9400634765625
      ],
      "min": [
        1209.7266845703125,
        -130.7030792236328,
        1677.9945068359375
      ],
      "type": "VEC3"
    },
    {
      "bufferView": 2,
      "byteOffset": 62484,
      "componentType": 5126,
      "count": 65,
      "max": [
        0.9377694725990295,
        0.9954838752746582,
        0.9337870478630066
      ],
      "min": [
        -0.9337871074676514,
        0.3457720875740051,
        -0.9337871074676514
      ],
      "type": "VEC3"
    },
    {
      "bufferView": 1,
      "byteOffset": 20568,
      "componentType": 5126,
      "count": 65,
      "max": [
        1.0000016689300537,
        1.000000238418579
      ],
      "min": [
        1.3113021850585938e-06,
        0.0
      ],
      "type": "VEC2"
    },
    {
      "bufferView": 0,
      "byteOffset": 61020,
      "componentType": 5125,
      "count": 336,
      "type": "SCALAR"
    },
    {
      "bufferView": 2,
      "byteOffset": 63264,
      "componentType": 5126,
      "count": 1730,
      "max": [
        1955.7176513671875,
        42.50011444091797,
        1473.278076171875
      ],
      "min": [
        1369.717041015625,
        -42.02552032470703,
        1041.287109375
      ],
      "type": "VEC3"
    },
    {
      "bufferView": 2,
      "byteOffset": 84024,
      "componentType": 5126,
      "count": 1730,
      "max": [
        0.9780075550079346,
        0.9993662238121033,
        0.8861766457557678
      ],
      "min": [
        -0.6381839513778687,
        -0.9990451335906982,
        -0.9716242551803589
      ],
      "type": "VEC3"
    },
    {
      "bufferView": 1,
      "byteOffset": 21088,
      "componentType": 5126,
      "count": 1730,
      "max": [
        0.20581716299057007,
        0.8779518604278564
      ],
      "min": [
        0.14798271656036377,
        0.8323776721954346
      ],
      "type": "VEC2"
    },
    {
      "bufferView": 0,
      "byteOffset": 62364,
      "componentType": 5125,
      "count": 1842,
      "type": "SCALAR"
    },
    {
      "bufferView": 2,
      "byteOffset": 104784,
      "componentType": 5126,
      "count": 1246,
      "max": [
        2607.46630859375,
        2928.0673828125,
        2668.449462890625
      ],
      "min": [
        -2405.35693359375,
        -2932.0576171875,
        726.3558959960938
      ],
      "type": "VEC3"
    },
    {
      "bufferView": 2,
      "byteOffset": 119736,
      "componentType": 5126,
      "count": 1246,
      "max": [
        0.9993871450424194,
        0.9992597103118896,
        0.9973945617675781
      ],
      "min": [
        -0.9973262548446655,
        -0.9985999464988708,
        -0.9970809817314148
      ],
      "type": "VEC3"
    },
    {
      "bufferView": 1,
      "byteOffset": 34928,
      "componentType": 5126,
      "count": 1246,
      "max": [
        0.9995746612548828,
        0.9994451999664307
      ],
      "min": [
        0.0006146430969238281,
        0.0003707408905029297
      ],
      "type": "VEC2"
    },
    {
      "bufferView": 0,
      "byteOffset": 69732,
      "componentType": 5125,
      "count": 6657,
      "type": "SCALAR"
    },
    {
      "bufferView": 2,
      "byteOffset": 134688,
      "componentType": 5126,
      "count": 80,
      "max": [
        621.3031005859375,
        7237.8583984375,
        1502.3912353515625
      ],
      "min": [
        -1653.906494140625,
        -7235.4326171875,
        1502.390625
      ],
      "type": "VEC3"
    },
    {
      "bufferView": 2,
      "byteOffset": 135648,
      "componentType": 5126,
      "count": 80,
      "max": [
        0.0,
        3.4527568004705245e-06,
        -1.0
      ],
      "min": [
        -1.3994343817103072e-06,
        -1.157490146397322e-06,
        -1.0
      ],
      "type": "VEC3"
    },
    {
      "bufferView": 1,
      "byteOffset": 44896,
      "componentType": 5126,
      "count": 80,
      "max": [
        0.9392740726470947,
        0.8998832702636719
      ],
      "min": [
        0.06663167476654053,
        0.3544818162918091
      ],
      "type": "VEC2"
    },
    {
      "bufferView": 0,
      "byteOffset": 96360,
      "componentType": 5125,
      "count": 246,
      "type": "SCALAR"
    }
  ],
  "asset": {
    "extras": {
      "author": "victorberdugo1 (https://sketchfab.com/victorberdugo1)",
      "license": "CC-BY-4.0 (http://creativecommons.org/licenses/by/4.0/)",
      "source": "https://sketchfab.com/3d-models/pterodactyl-458b6b0211d64fc499d0debee157be2b",
      "title": "Pterodactyl"
    },
    "generator": "Sketchfab-16.8.0",
    "version": "2.0"
  },
  "bufferViews": [
    {
      "buffer": 0,
      "byteLength": 97344,
      "name": "floatBufferViews",
      "target": 34963
    },
    {
      "buffer": 0,
      "byteLength": 45536,
      "byteOffset": 97344,
      "byteStride": 8,
      "name": "floatBufferViews",
      "target": 34962
    },
    {
      "buffer": 0,
      "byteLength": 136608,
      "byteOffset": 142880,
      "byteStride": 12,
      "name": "floatBufferViews",
      "target": 34962
    }
  ],
  "buffers": [
    {
      "byteLength": 279488,
      "uri": "scene.bin"
    }
  ],
  "images": [
    {
      "uri": "textures/PTeAla_baseColor.jpeg"
    },
    {
      "uri": "textures/ptehead2_baseColor.jpeg"
    },
    {
      "uri": "textures/pteeye_baseColor.jpeg"
    }
  ],
  "materials": [
    {
      "doubleSided": true,
      "name": "PTeAla",
      "pbrMetallicRoughness": {
        "baseColorTexture": {
          "index": 0
        },
        "metallicFactor": 0.0,
        "roughnessFactor": 0.6
      }
    },
    {
      "doubleSided": true,
      "name": "ptehead2",
      "pbrMetallicRoughness": {
        "baseColorTexture": {
          "index": 1
        },
        "metallicFactor": 0.0,
        "roughnessFactor": 0.6
      }
    },
    {
      "doubleSided": true,
      "name": "ptetonque",
      "pbrMetallicRoughness": {
        "baseColorTexture": {
          "index": 1
        },
        "metallicFactor": 0.0,
        "roughnessFactor": 0.6
      }
    },
    {
      "doubleSided": true,
      "name": "pteeye",
      "pbrMetallicRoughness": {
        "baseColorTexture": {
          "index": 2
        },
        "metallicFactor": 0.0,
        "roughnessFactor": 0.6
      }
    }
  ],
  "meshes": [
    {
      "name": "Object_0",
      "primitives": [
        {
          "attributes": {
            "NORMAL": 1,
            "POSITION": 0,
            "TEXCOORD_0": 2
          },
          "indices": 3,
          "material": 0,
          "mode": 4
        }
      ]
    },
    {
      "name": "Object_1",
      "primitives": [
        {
          "attributes": {
            "NORMAL": 5,
            "POSITION": 4,
            "TEXCOORD_0": 6
          },
          "indices": 7,
          "material": 3,
          "mode": 4
        }
      ]
    },
    {
      "name": "Object_2",
      "primitives": [
        {
          "attributes": {
            "NORMAL": 9,
            "POSITION": 8,
            "TEXCOORD_0": 10
          },
          "indices": 11,
          "material": 3,
          "mode": 4
        }
      ]
    },
    {
      "name": "Object_3",
      "primitives": [
        {
          "attributes": {
            "NORMAL": 13,
            "POSITION": 12,
            "TEXCOORD_0": 14
          },
          "indices": 15,
          "material": 2,
          "mode": 4
        }
      ]
    },
    {
      "name": "Object_4",
      "primitives": [
        {
          "attributes": {
            "NORMAL": 17,
            "POSITION": 16,
            "TEXCOORD_0": 18
          },
          "indices": 19,
          "material": 1,
          "mode": 4
        }
      ]
    },
    {
      "name": "Object_5",
      "primitives": [
        {
          "attributes": {
            "NORMAL": 21,
            "POSITION": 20,
            "TEXCOORD_0": 22
          },
          "indices": 23,
          "material": 0,
          "mode": 4
        }
      ]
    }
  ],
  "nodes": [
    {
      "children": [
        1
      ],
      "matrix": [
        1.0,
        0.0,
        0.0,
        0.0,
        0.0,
        2.220446049250313e-16,
        -1.0,
        0.0,
        0.0,
        1.0,
        2.220446049250313e-16,
        0.0,
        0.0,
        0.0,
        0.0,
        1.0
      ],
      "name": "Sketchfab_model"
    },
    {
      "children": [
        2,
        5,
        8,
        11,
        14,
        17
      ],
      "name": "PTERANO_.3DS"
    },
    {
      "children": [
        3
      ],
      "matrix": [
        1.0,
        0.0,
        0.0,
        0.0,
        0.0,
        1.0,
        0.0,
        0.0,
        0.0,
        0.0,
        1.0,
        0.0,
        101.0548095703125,
        -1.897705078125,
        1697.4027099609375,
        1.0
      ],
      "name": "PTE1"
    },
    {
      "children": [
        4
      ],
      "matrix": [
        1.0,
        0.0,
        0.0,
        0.0,
        0.0,
        1.0,
        0.0,
        0.0,
        0.0,
        0.0,
        1.0,
        0.0,
        -101.0548095703125,
        1.897705078125,
        -1697.4027099609375,
        1.0
      ],
      "name": "3DSMeshMatrix"
    },
    {
      "mesh": 0,
      "name": "Object_4"
    },
    {
      "children": [
        6
      ],
      "matrix": [
        1.0,
        0.0,
        0.0,
        0.0,
        0.0,
        1.0,
        0.0,
        0.0,
        0.0,
        0.0,
        1.0,
        0.0,
        1248.699462890625,
        119.70142364501953,
        1716.96728515625,
        1.0
      ],
      "name": "pteeyel"
    },
    {
      "children": [
        7
      ],
      "matrix": [
        1.0,
        0.0,
        0.0,
        0.0,
        0.0,
        1.0,
        0.0,
        0.0,
        0.0,
        0.0,
        1.0,
        0.0,
        -1248.699462890625,
        -119.70142364501953,
        -1716.96728515625,
        1.0
      ],
      "name": "3DSMeshMatrix"
    },
    {
      "mesh": 1,
      "name": "Object_7"
    },
    {
      "children": [
        9
      ],
      "matrix": [
        1.0,
        0.0,
        0.0,
        0.0,
        0.0,
        1.0,
        0.0,
        0.0,
        0.0,
        0.0,
        1.0,
        0.0,
        1248.699462890625,
        -120.23567199707031,
        1716.96728515625,
        1.0
      ],
      "name": "pteeyer"
    },
    {
      "children": [
        10
      ],
      "matrix": [
        1.0,
        0.0,
        0.0,
        0.0,
        0.0,
        1.0,
        0.0,
        0.0,
        0.0,
        0.0,
        1.0,
        0.0,
        -1248.699462890625,
        120.23567199707031,
        -1716.96728515625,
        1.0
      ],
      "name": "3DSMeshMatrix"
    },
    {
      "mesh": 2,
      "name": "Object_10"
    },
    {
      "children": [
        12
      ],
      "matrix": [
        1.0,
        0.0,
        0.0,
        0.0,
        0.0,
        1.0,
        0.0,
        0.0,
        0.0,
        0.0,
        1.0,
        0.0,
        1661.27880859375,
        0.23724937438964844,
        1246.36962890625,
        1.0
      ],
      "name": "ptetongue"
    },
    {
      "children": [
        13
      ],
      "matrix": [
        1.0,
        0.0,
        0.0,
        0.0,
        0.0,
        1.0,
        0.0,
        0.0,
        0.0,
        0.0,
        1.0,
        0.0,
        -1661.27880859375,
        -0.23724937438964844,
        -1246.36962890625,
        1.0
      ],
      "name": "3DSMeshMatrix"
    },
    {
      "mesh": 3,
      "name": "Object_13"
    },
    {
      "children": [
        15
      ],
      "matrix": [
        1.0,
        0.0,
        0.0,
        0.0,
        0.0,
        1.0,
        0.0,
        0.0,
        0.0,
        0.0,
        1.0,
        0.0,
        101.0548095703125,
        -1.897705078125,
        1697.4027099609375,
        1.0
      ],
      "name": "ptebody"
    },
    {
      "children": [
        16
      ],
      "matrix": [
        1.0,
        0.0,
        0.0,
        0.0,
        0.0,
        1.0,
        0.0,
        0.0,
        0.0,
        0.0,
        1.0,
        0.0,
        -101.0548095703125,
        1.897705078125,
        -1697.4027099609375,
        1.0
      ],
      "name": "3DSMeshMatrix"
    },
    {
      "mesh": 4,
      "name": "Object_16"
    },
    {
      "children": [
        18
      ],
      "matrix": [
        1.0,
        0.0,
        0.0,
        0.0,
        0.0,
        1.0,
        0.0,
        0.0,
        0.0,
        0.0,
        1.0,
        0.0,
        -511.9771728515625,
        1.213134765625,
        1502.390869140625,
        1.0
      ],
      "name": "ptewing"
    },
    {
      "children": [
        19
      ],
      "matrix": [
        1.0,
        0.0,
        0.0,
        0.0,
        0.0,
        1.0,
        0.0,
        0.0,
        0.0,
        0.0,
        1.0,
        0.0,
        511.9771728515625,
        -1.213134765625,
        -1502.390869140625,
        1.0
      ],
      "name": "3DSMeshMatrix"
    },
    {
      "mesh": 5,
      "name": "Object_19"
    }
  ],
  "samplers": [
    {
      "magFilter": 9729,
      "minFilter": 9987,
      "wrapS": 33071,
      "wrapT": 33071
    },
    {
      "magFilter": 9729,
      "minFilter": 9987,
      "wrapS": 10497,
      "wrapT": 10497
    }
  ],
  "scene": 0,
  "scenes": [
    {
      "name": "Sketchfab_Scene",
      "nodes": [
        0
      ]
    }
  ],
  "textures": [
    {
      "sampler": 0,
      "source": 0
    },
    {
      "sampler": 1,
      "source": 1
    },
    {
      "sampler": 1,
      "source": 2
    }
  ]
}
